<mxfile host="Electron" modified="2024-10-21T14:49:55.055Z" agent="Mozilla/5.0 (Macintosh; Intel Mac OS X 10_15_7) AppleWebKit/537.36 (KHTML, like Gecko) draw.io/24.1.0 Chrome/120.0.6099.109 Electron/28.1.0 Safari/537.36" etag="4j8kcJLPaOypWj1F68KD" version="24.1.0" type="device" pages="2">
  <diagram name="Page-1" id="-7N9URdHmehw-3D6zgUb">
    <mxGraphModel dx="797" dy="674" grid="1" gridSize="10" guides="1" tooltips="1" connect="1" arrows="1" fold="1" page="1" pageScale="1" pageWidth="850" pageHeight="1100" math="0" shadow="0">
      <root>
        <mxCell id="0" />
        <mxCell id="1" parent="0" />
        <mxCell id="ov3V7qwJOUjR4YtO758n-13" value="&lt;div&gt;&lt;br&gt;&lt;/div&gt;" style="rounded=1;whiteSpace=wrap;html=1;fillColor=#99CCFF;strokeColor=#000000;" parent="1" vertex="1">
          <mxGeometry x="850" y="840" width="330" height="100" as="geometry" />
        </mxCell>
        <mxCell id="ov3V7qwJOUjR4YtO758n-1" value="基础设施层&lt;div&gt;包含DB、Redis、Config等&lt;/div&gt;" style="rounded=0;whiteSpace=wrap;html=1;" parent="1" vertex="1">
          <mxGeometry x="310" y="890" width="390" height="60" as="geometry" />
        </mxCell>
        <mxCell id="ov3V7qwJOUjR4YtO758n-2" value="领域层&lt;br&gt;包含用户领域（IRepository、Enity、Service）" style="rounded=0;whiteSpace=wrap;html=1;" parent="1" vertex="1">
          <mxGeometry x="310" y="800" width="290" height="60" as="geometry" />
        </mxCell>
        <mxCell id="ov3V7qwJOUjR4YtO758n-3" value="应用层&lt;div&gt;包含用户应用（UserApplication等）&lt;/div&gt;" style="rounded=0;whiteSpace=wrap;html=1;" parent="1" vertex="1">
          <mxGeometry x="310" y="716" width="290" height="60" as="geometry" />
        </mxCell>
        <mxCell id="ov3V7qwJOUjR4YtO758n-4" value="接口层&lt;br&gt;包含各类（应用接口）" style="rounded=0;whiteSpace=wrap;html=1;" parent="1" vertex="1">
          <mxGeometry x="310" y="630" width="290" height="60" as="geometry" />
        </mxCell>
        <mxCell id="ov3V7qwJOUjR4YtO758n-7" value="基础设施层" style="rounded=0;whiteSpace=wrap;html=1;rotation=-90;" parent="1" vertex="1">
          <mxGeometry x="509.38" y="755.01" width="320" height="70" as="geometry" />
        </mxCell>
        <mxCell id="ov3V7qwJOUjR4YtO758n-9" value="&lt;font style=&quot;font-size: 10px;&quot;&gt;DB&lt;/font&gt;" style="ellipse;whiteSpace=wrap;html=1;aspect=fixed;" parent="1" vertex="1">
          <mxGeometry x="870" y="865" width="50" height="50" as="geometry" />
        </mxCell>
        <mxCell id="ov3V7qwJOUjR4YtO758n-10" value="&lt;font style=&quot;font-size: 10px;&quot;&gt;Redis&lt;/font&gt;" style="ellipse;whiteSpace=wrap;html=1;aspect=fixed;" parent="1" vertex="1">
          <mxGeometry x="930" y="865" width="50" height="50" as="geometry" />
        </mxCell>
        <mxCell id="ov3V7qwJOUjR4YtO758n-11" value="&lt;font style=&quot;font-size: 10px;&quot;&gt;Config&lt;/font&gt;" style="ellipse;whiteSpace=wrap;html=1;aspect=fixed;" parent="1" vertex="1">
          <mxGeometry x="990" y="865" width="50" height="50" as="geometry" />
        </mxCell>
        <mxCell id="ov3V7qwJOUjR4YtO758n-12" value="&lt;font style=&quot;font-size: 10px;&quot;&gt;Repository&lt;/font&gt;" style="ellipse;whiteSpace=wrap;html=1;aspect=fixed;" parent="1" vertex="1">
          <mxGeometry x="1050" y="865" width="50" height="50" as="geometry" />
        </mxCell>
        <mxCell id="ov3V7qwJOUjR4YtO758n-14" value="&lt;div&gt;/*--------------------------------&lt;/div&gt;" style="rounded=1;whiteSpace=wrap;html=1;fillColor=#fff2cc;strokeColor=#000000;" parent="1" vertex="1">
          <mxGeometry x="850" y="725.01" width="330" height="100" as="geometry" />
        </mxCell>
        <mxCell id="ov3V7qwJOUjR4YtO758n-16" value="" style="rounded=1;whiteSpace=wrap;html=1;" parent="1" vertex="1">
          <mxGeometry x="870" y="734.52" width="140" height="80" as="geometry" />
        </mxCell>
        <mxCell id="ov3V7qwJOUjR4YtO758n-17" value="&lt;font style=&quot;font-size: 10px;&quot;&gt;IRepository&lt;/font&gt;" style="rounded=1;whiteSpace=wrap;html=1;" parent="1" vertex="1">
          <mxGeometry x="880" y="741.03" width="70" height="20" as="geometry" />
        </mxCell>
        <mxCell id="ov3V7qwJOUjR4YtO758n-18" value="&lt;font style=&quot;font-size: 10px;&quot;&gt;Service&lt;/font&gt;" style="rounded=1;whiteSpace=wrap;html=1;" parent="1" vertex="1">
          <mxGeometry x="880" y="766.03" width="70" height="18.99" as="geometry" />
        </mxCell>
        <mxCell id="ov3V7qwJOUjR4YtO758n-19" value="&lt;font style=&quot;font-size: 10px;&quot;&gt;Enity&lt;/font&gt;" style="rounded=1;whiteSpace=wrap;html=1;" parent="1" vertex="1">
          <mxGeometry x="880" y="790.51" width="70" height="18.99" as="geometry" />
        </mxCell>
        <mxCell id="ov3V7qwJOUjR4YtO758n-20" value="&lt;div&gt;&lt;br&gt;&lt;/div&gt;" style="rounded=1;whiteSpace=wrap;html=1;fillColor=#B9E0A5;fontColor=#333333;strokeColor=#666666;" parent="1" vertex="1">
          <mxGeometry x="850" y="610" width="330" height="100" as="geometry" />
        </mxCell>
        <mxCell id="ov3V7qwJOUjR4YtO758n-22" value="&lt;font style=&quot;font-size: 10px;&quot;&gt;UserApplication&lt;/font&gt;" style="rounded=1;whiteSpace=wrap;html=1;" parent="1" vertex="1">
          <mxGeometry x="870" y="620" width="80" height="80" as="geometry" />
        </mxCell>
        <mxCell id="ov3V7qwJOUjR4YtO758n-23" value="&lt;font style=&quot;font-size: 10px;&quot;&gt;WalletApplication&lt;/font&gt;" style="rounded=1;whiteSpace=wrap;html=1;" parent="1" vertex="1">
          <mxGeometry x="975" y="620" width="80" height="80" as="geometry" />
        </mxCell>
        <mxCell id="ov3V7qwJOUjR4YtO758n-24" value="&lt;font style=&quot;font-size: 10px;&quot;&gt;WorkApplication&lt;/font&gt;" style="rounded=1;whiteSpace=wrap;html=1;" parent="1" vertex="1">
          <mxGeometry x="1080" y="620" width="80" height="80" as="geometry" />
        </mxCell>
        <mxCell id="ov3V7qwJOUjR4YtO758n-28" value="&lt;div style=&quot;&quot;&gt;&lt;pre style=&quot;font-family: &amp;quot;JetBrains Mono&amp;quot;, monospace;&quot;&gt;&lt;span style=&quot;font-family: Helvetica; white-space: normal;&quot;&gt;&lt;font style=&quot;font-size: 10px;&quot;&gt;&lt;b&gt;基础设施层&lt;/b&gt;&lt;/font&gt;&lt;/span&gt;&lt;span style=&quot;font-size: 9.8pt;&quot;&gt;&lt;br&gt;&lt;/span&gt;&lt;/pre&gt;&lt;/div&gt;" style="rounded=1;whiteSpace=wrap;html=1;fillColor=#99CCFF;strokeColor=#000000;" parent="1" vertex="1">
          <mxGeometry x="1200" y="840" width="70" height="99.52" as="geometry" />
        </mxCell>
        <mxCell id="ov3V7qwJOUjR4YtO758n-29" value="&lt;div style=&quot;&quot;&gt;&lt;pre style=&quot;font-family: &amp;quot;JetBrains Mono&amp;quot;, monospace;&quot;&gt;&lt;span style=&quot;font-family: Helvetica; white-space: normal;&quot;&gt;&lt;font style=&quot;font-size: 10px;&quot;&gt;&lt;b&gt;领域层&lt;/b&gt;&lt;/font&gt;&lt;/span&gt;&lt;span style=&quot;font-size: 9.8pt;&quot;&gt;&lt;br&gt;&lt;/span&gt;&lt;/pre&gt;&lt;/div&gt;" style="rounded=1;whiteSpace=wrap;html=1;fillColor=#fff2cc;strokeColor=#000000;" parent="1" vertex="1">
          <mxGeometry x="1200" y="725.04" width="70" height="100" as="geometry" />
        </mxCell>
        <mxCell id="ov3V7qwJOUjR4YtO758n-30" value="&lt;div style=&quot;&quot;&gt;&lt;pre style=&quot;font-family: &amp;quot;JetBrains Mono&amp;quot;, monospace;&quot;&gt;&lt;span style=&quot;font-family: Helvetica; white-space: normal;&quot;&gt;&lt;font style=&quot;font-size: 10px;&quot;&gt;&lt;b&gt;应用层&lt;/b&gt;&lt;/font&gt;&lt;/span&gt;&lt;span style=&quot;font-size: 9.8pt;&quot;&gt;&lt;br&gt;&lt;/span&gt;&lt;/pre&gt;&lt;/div&gt;" style="rounded=1;whiteSpace=wrap;html=1;fillColor=#B9E0A5;fontColor=#333333;strokeColor=#666666;" parent="1" vertex="1">
          <mxGeometry x="1200" y="609.52" width="70" height="100" as="geometry" />
        </mxCell>
        <mxCell id="ov3V7qwJOUjR4YtO758n-31" value="&lt;div style=&quot;font-size: 9px;&quot;&gt;&lt;pre style=&quot;font-family: &amp;quot;JetBrains Mono&amp;quot;, monospace;&quot;&gt;&lt;span style=&quot;font-family: Helvetica; white-space: normal;&quot;&gt;User&lt;br&gt;&lt;/span&gt;Domain&lt;/pre&gt;&lt;/div&gt;" style="rounded=1;whiteSpace=wrap;html=1;" parent="1" vertex="1">
          <mxGeometry x="960" y="742.52" width="40" height="66.01" as="geometry" />
        </mxCell>
        <mxCell id="ov3V7qwJOUjR4YtO758n-35" value="" style="rounded=1;whiteSpace=wrap;html=1;" parent="1" vertex="1">
          <mxGeometry x="1020" y="734.52" width="140" height="80" as="geometry" />
        </mxCell>
        <mxCell id="ov3V7qwJOUjR4YtO758n-33" value="&lt;div style=&quot;font-size: 9px;&quot;&gt;&lt;pre style=&quot;font-family: &amp;quot;JetBrains Mono&amp;quot;, monospace;&quot;&gt;&lt;span style=&quot;font-family: Helvetica; white-space: normal;&quot;&gt;Wallet&lt;br&gt;&lt;/span&gt;Domain&lt;/pre&gt;&lt;/div&gt;" style="rounded=1;whiteSpace=wrap;html=1;" parent="1" vertex="1">
          <mxGeometry x="1110" y="742.52" width="40" height="66.01" as="geometry" />
        </mxCell>
        <mxCell id="ov3V7qwJOUjR4YtO758n-36" value="&lt;font style=&quot;font-size: 10px;&quot;&gt;IRepository&lt;/font&gt;" style="rounded=1;whiteSpace=wrap;html=1;" parent="1" vertex="1">
          <mxGeometry x="1030" y="740.28" width="70" height="20" as="geometry" />
        </mxCell>
        <mxCell id="ov3V7qwJOUjR4YtO758n-37" value="&lt;font style=&quot;font-size: 10px;&quot;&gt;Service&lt;/font&gt;" style="rounded=1;whiteSpace=wrap;html=1;" parent="1" vertex="1">
          <mxGeometry x="1030" y="765.28" width="70" height="18.99" as="geometry" />
        </mxCell>
        <mxCell id="ov3V7qwJOUjR4YtO758n-38" value="&lt;font style=&quot;font-size: 10px;&quot;&gt;Enity&lt;/font&gt;" style="rounded=1;whiteSpace=wrap;html=1;" parent="1" vertex="1">
          <mxGeometry x="1030" y="789.76" width="70" height="18.99" as="geometry" />
        </mxCell>
        <mxCell id="ov3V7qwJOUjR4YtO758n-39" value="&lt;span style=&quot;font-size: 10px;&quot;&gt;Queue&lt;/span&gt;" style="ellipse;whiteSpace=wrap;html=1;aspect=fixed;" parent="1" vertex="1">
          <mxGeometry x="1110" y="865" width="50" height="50" as="geometry" />
        </mxCell>
        <mxCell id="ov3V7qwJOUjR4YtO758n-40" value="&lt;div&gt;&lt;br&gt;&lt;/div&gt;" style="rounded=1;whiteSpace=wrap;html=1;fillColor=#f5f5f5;fontColor=#333333;strokeColor=#666666;" parent="1" vertex="1">
          <mxGeometry x="850" y="490" width="330" height="100" as="geometry" />
        </mxCell>
        <mxCell id="ov3V7qwJOUjR4YtO758n-41" value="&lt;font style=&quot;font-size: 10px;&quot;&gt;UserP&lt;/font&gt;&lt;span style=&quot;font-family: Inter; font-size: 9.8pt;&quot;&gt;resentation&lt;/span&gt;" style="rounded=1;whiteSpace=wrap;html=1;labelBackgroundColor=none;fontColor=#000000;" parent="1" vertex="1">
          <mxGeometry x="860" y="500" width="90" height="80" as="geometry" />
        </mxCell>
        <mxCell id="ov3V7qwJOUjR4YtO758n-42" value="&lt;font style=&quot;font-size: 10px;&quot;&gt;WalletP&lt;/font&gt;&lt;span style=&quot;font-family: Inter; font-size: 9.8pt;&quot;&gt;resentation&lt;/span&gt;" style="rounded=1;whiteSpace=wrap;html=1;labelBackgroundColor=none;fontColor=#000000;" parent="1" vertex="1">
          <mxGeometry x="965" y="500" width="95" height="80" as="geometry" />
        </mxCell>
        <mxCell id="ov3V7qwJOUjR4YtO758n-43" value="&lt;font style=&quot;font-size: 10px;&quot;&gt;WorkP&lt;/font&gt;&lt;span style=&quot;font-family: Inter; font-size: 9.8pt;&quot;&gt;resentation&lt;/span&gt;" style="rounded=1;whiteSpace=wrap;html=1;labelBackgroundColor=none;fontColor=#000000;" parent="1" vertex="1">
          <mxGeometry x="1080" y="500" width="90" height="80" as="geometry" />
        </mxCell>
        <mxCell id="ov3V7qwJOUjR4YtO758n-44" value="&lt;div style=&quot;&quot;&gt;&lt;pre style=&quot;font-family: &amp;quot;JetBrains Mono&amp;quot;, monospace;&quot;&gt;&lt;span style=&quot;font-family: Helvetica; white-space: normal;&quot;&gt;&lt;font style=&quot;font-size: 10px;&quot;&gt;&lt;b&gt;表示层&lt;/b&gt;&lt;/font&gt;&lt;/span&gt;&lt;span style=&quot;font-size: 9.8pt;&quot;&gt;&lt;br&gt;&lt;/span&gt;&lt;/pre&gt;&lt;/div&gt;" style="rounded=1;whiteSpace=wrap;html=1;fillColor=#f5f5f5;fontColor=#333333;strokeColor=#666666;" parent="1" vertex="1">
          <mxGeometry x="1200" y="490" width="70" height="100" as="geometry" />
        </mxCell>
        <mxCell id="hQem3i2IH8AsM8--OExP-37" value="Mindmap" style="swimlane;startSize=20;horizontal=1;containerType=tree;" parent="1" vertex="1">
          <mxGeometry x="1330" y="446" width="600" height="600" as="geometry" />
        </mxCell>
        <mxCell id="hQem3i2IH8AsM8--OExP-38" value="" style="edgeStyle=entityRelationEdgeStyle;startArrow=none;endArrow=none;segment=10;curved=1;sourcePerimeterSpacing=0;targetPerimeterSpacing=0;rounded=0;" parent="hQem3i2IH8AsM8--OExP-37" source="hQem3i2IH8AsM8--OExP-42" target="hQem3i2IH8AsM8--OExP-43" edge="1">
          <mxGeometry relative="1" as="geometry" />
        </mxCell>
        <mxCell id="hQem3i2IH8AsM8--OExP-42" value="&lt;span style=&quot;font-size: 10px;&quot;&gt;WalletApplication&lt;/span&gt;" style="ellipse;whiteSpace=wrap;html=1;align=center;treeFolding=1;treeMoving=1;newEdgeStyle={&quot;edgeStyle&quot;:&quot;entityRelationEdgeStyle&quot;,&quot;startArrow&quot;:&quot;none&quot;,&quot;endArrow&quot;:&quot;none&quot;,&quot;segment&quot;:10,&quot;curved&quot;:1,&quot;sourcePerimeterSpacing&quot;:0,&quot;targetPerimeterSpacing&quot;:0};" parent="hQem3i2IH8AsM8--OExP-37" vertex="1">
          <mxGeometry x="20" y="280" width="100" height="40" as="geometry" />
        </mxCell>
        <mxCell id="hQem3i2IH8AsM8--OExP-43" value="钱包模块" style="whiteSpace=wrap;html=1;rounded=1;arcSize=50;align=center;verticalAlign=middle;strokeWidth=1;autosize=1;spacing=4;treeFolding=1;treeMoving=1;newEdgeStyle={&quot;edgeStyle&quot;:&quot;entityRelationEdgeStyle&quot;,&quot;startArrow&quot;:&quot;none&quot;,&quot;endArrow&quot;:&quot;none&quot;,&quot;segment&quot;:10,&quot;curved&quot;:1,&quot;sourcePerimeterSpacing&quot;:0,&quot;targetPerimeterSpacing&quot;:0};" parent="hQem3i2IH8AsM8--OExP-37" vertex="1">
          <mxGeometry x="150" y="285" width="90" height="30" as="geometry" />
        </mxCell>
        <mxCell id="hQem3i2IH8AsM8--OExP-47" value="" style="edgeStyle=entityRelationEdgeStyle;startArrow=none;endArrow=none;segment=10;curved=1;sourcePerimeterSpacing=0;targetPerimeterSpacing=0;rounded=0;" parent="hQem3i2IH8AsM8--OExP-37" source="hQem3i2IH8AsM8--OExP-43" target="hQem3i2IH8AsM8--OExP-48" edge="1">
          <mxGeometry relative="1" as="geometry">
            <mxPoint x="1720" y="590" as="sourcePoint" />
          </mxGeometry>
        </mxCell>
        <mxCell id="hQem3i2IH8AsM8--OExP-48" value="生成钱包" style="whiteSpace=wrap;html=1;rounded=1;arcSize=50;align=center;verticalAlign=middle;strokeWidth=1;autosize=1;spacing=4;treeFolding=1;treeMoving=1;newEdgeStyle={&quot;edgeStyle&quot;:&quot;entityRelationEdgeStyle&quot;,&quot;startArrow&quot;:&quot;none&quot;,&quot;endArrow&quot;:&quot;none&quot;,&quot;segment&quot;:10,&quot;curved&quot;:1,&quot;sourcePerimeterSpacing&quot;:0,&quot;targetPerimeterSpacing&quot;:0};" parent="hQem3i2IH8AsM8--OExP-37" vertex="1">
          <mxGeometry x="440" y="30" width="90" height="30" as="geometry" />
        </mxCell>
        <mxCell id="hQem3i2IH8AsM8--OExP-51" value="" style="edgeStyle=entityRelationEdgeStyle;startArrow=none;endArrow=none;segment=10;curved=1;sourcePerimeterSpacing=0;targetPerimeterSpacing=0;rounded=0;" parent="hQem3i2IH8AsM8--OExP-37" source="hQem3i2IH8AsM8--OExP-43" target="hQem3i2IH8AsM8--OExP-52" edge="1">
          <mxGeometry relative="1" as="geometry">
            <mxPoint x="1720" y="590" as="sourcePoint" />
          </mxGeometry>
        </mxCell>
        <mxCell id="hQem3i2IH8AsM8--OExP-52" value="添加余额" style="whiteSpace=wrap;html=1;rounded=1;arcSize=50;align=center;verticalAlign=middle;strokeWidth=1;autosize=1;spacing=4;treeFolding=1;treeMoving=1;newEdgeStyle={&quot;edgeStyle&quot;:&quot;entityRelationEdgeStyle&quot;,&quot;startArrow&quot;:&quot;none&quot;,&quot;endArrow&quot;:&quot;none&quot;,&quot;segment&quot;:10,&quot;curved&quot;:1,&quot;sourcePerimeterSpacing&quot;:0,&quot;targetPerimeterSpacing&quot;:0};" parent="hQem3i2IH8AsM8--OExP-37" vertex="1">
          <mxGeometry x="440" y="75" width="90" height="30" as="geometry" />
        </mxCell>
        <mxCell id="hQem3i2IH8AsM8--OExP-53" value="" style="edgeStyle=entityRelationEdgeStyle;startArrow=none;endArrow=none;segment=10;curved=1;sourcePerimeterSpacing=0;targetPerimeterSpacing=0;rounded=0;" parent="hQem3i2IH8AsM8--OExP-37" source="hQem3i2IH8AsM8--OExP-43" target="hQem3i2IH8AsM8--OExP-54" edge="1">
          <mxGeometry relative="1" as="geometry">
            <mxPoint x="1720" y="590" as="sourcePoint" />
          </mxGeometry>
        </mxCell>
        <mxCell id="hQem3i2IH8AsM8--OExP-54" value="获取集群信息" style="whiteSpace=wrap;html=1;rounded=1;arcSize=50;align=center;verticalAlign=middle;strokeWidth=1;autosize=1;spacing=4;treeFolding=1;treeMoving=1;newEdgeStyle={&quot;edgeStyle&quot;:&quot;entityRelationEdgeStyle&quot;,&quot;startArrow&quot;:&quot;none&quot;,&quot;endArrow&quot;:&quot;none&quot;,&quot;segment&quot;:10,&quot;curved&quot;:1,&quot;sourcePerimeterSpacing&quot;:0,&quot;targetPerimeterSpacing&quot;:0};" parent="hQem3i2IH8AsM8--OExP-37" vertex="1">
          <mxGeometry x="440" y="120" width="120" height="30" as="geometry" />
        </mxCell>
        <mxCell id="hQem3i2IH8AsM8--OExP-55" value="" style="edgeStyle=entityRelationEdgeStyle;startArrow=none;endArrow=none;segment=10;curved=1;sourcePerimeterSpacing=0;targetPerimeterSpacing=0;rounded=0;" parent="hQem3i2IH8AsM8--OExP-37" source="hQem3i2IH8AsM8--OExP-43" target="hQem3i2IH8AsM8--OExP-56" edge="1">
          <mxGeometry relative="1" as="geometry">
            <mxPoint x="1720" y="590" as="sourcePoint" />
          </mxGeometry>
        </mxCell>
        <mxCell id="hQem3i2IH8AsM8--OExP-56" value="获取供应/流通量" style="whiteSpace=wrap;html=1;rounded=1;arcSize=50;align=center;verticalAlign=middle;strokeWidth=1;autosize=1;spacing=4;treeFolding=1;treeMoving=1;newEdgeStyle={&quot;edgeStyle&quot;:&quot;entityRelationEdgeStyle&quot;,&quot;startArrow&quot;:&quot;none&quot;,&quot;endArrow&quot;:&quot;none&quot;,&quot;segment&quot;:10,&quot;curved&quot;:1,&quot;sourcePerimeterSpacing&quot;:0,&quot;targetPerimeterSpacing&quot;:0};" parent="hQem3i2IH8AsM8--OExP-37" vertex="1">
          <mxGeometry x="440" y="160" width="130" height="30" as="geometry" />
        </mxCell>
        <mxCell id="hQem3i2IH8AsM8--OExP-57" value="" style="edgeStyle=entityRelationEdgeStyle;startArrow=none;endArrow=none;segment=10;curved=1;sourcePerimeterSpacing=0;targetPerimeterSpacing=0;rounded=0;" parent="hQem3i2IH8AsM8--OExP-37" source="hQem3i2IH8AsM8--OExP-43" target="hQem3i2IH8AsM8--OExP-58" edge="1">
          <mxGeometry relative="1" as="geometry">
            <mxPoint x="1720" y="600" as="sourcePoint" />
          </mxGeometry>
        </mxCell>
        <mxCell id="hQem3i2IH8AsM8--OExP-58" value="生成密钥对" style="whiteSpace=wrap;html=1;rounded=1;arcSize=50;align=center;verticalAlign=middle;strokeWidth=1;autosize=1;spacing=4;treeFolding=1;treeMoving=1;newEdgeStyle={&quot;edgeStyle&quot;:&quot;entityRelationEdgeStyle&quot;,&quot;startArrow&quot;:&quot;none&quot;,&quot;endArrow&quot;:&quot;none&quot;,&quot;segment&quot;:10,&quot;curved&quot;:1,&quot;sourcePerimeterSpacing&quot;:0,&quot;targetPerimeterSpacing&quot;:0};" parent="hQem3i2IH8AsM8--OExP-37" vertex="1">
          <mxGeometry x="440" y="200" width="100" height="30" as="geometry" />
        </mxCell>
        <mxCell id="hQem3i2IH8AsM8--OExP-59" value="" style="edgeStyle=entityRelationEdgeStyle;startArrow=none;endArrow=none;segment=10;curved=1;sourcePerimeterSpacing=0;targetPerimeterSpacing=0;rounded=0;" parent="hQem3i2IH8AsM8--OExP-37" source="hQem3i2IH8AsM8--OExP-43" target="hQem3i2IH8AsM8--OExP-60" edge="1">
          <mxGeometry relative="1" as="geometry">
            <mxPoint x="1680" y="600" as="sourcePoint" />
          </mxGeometry>
        </mxCell>
        <mxCell id="hQem3i2IH8AsM8--OExP-60" value="获取钱包余额" style="whiteSpace=wrap;html=1;rounded=1;arcSize=50;align=center;verticalAlign=middle;strokeWidth=1;autosize=1;spacing=4;treeFolding=1;treeMoving=1;newEdgeStyle={&quot;edgeStyle&quot;:&quot;entityRelationEdgeStyle&quot;,&quot;startArrow&quot;:&quot;none&quot;,&quot;endArrow&quot;:&quot;none&quot;,&quot;segment&quot;:10,&quot;curved&quot;:1,&quot;sourcePerimeterSpacing&quot;:0,&quot;targetPerimeterSpacing&quot;:0};" parent="hQem3i2IH8AsM8--OExP-37" vertex="1">
          <mxGeometry x="440" y="240" width="120" height="30" as="geometry" />
        </mxCell>
        <mxCell id="hQem3i2IH8AsM8--OExP-62" value="" style="edgeStyle=entityRelationEdgeStyle;startArrow=none;endArrow=none;segment=10;curved=1;sourcePerimeterSpacing=0;targetPerimeterSpacing=0;rounded=0;" parent="hQem3i2IH8AsM8--OExP-37" source="hQem3i2IH8AsM8--OExP-43" target="hQem3i2IH8AsM8--OExP-63" edge="1">
          <mxGeometry relative="1" as="geometry">
            <mxPoint x="1680" y="600" as="sourcePoint" />
          </mxGeometry>
        </mxCell>
        <mxCell id="hQem3i2IH8AsM8--OExP-63" value="请求空投" style="whiteSpace=wrap;html=1;rounded=1;arcSize=50;align=center;verticalAlign=middle;strokeWidth=1;autosize=1;spacing=4;treeFolding=1;treeMoving=1;newEdgeStyle={&quot;edgeStyle&quot;:&quot;entityRelationEdgeStyle&quot;,&quot;startArrow&quot;:&quot;none&quot;,&quot;endArrow&quot;:&quot;none&quot;,&quot;segment&quot;:10,&quot;curved&quot;:1,&quot;sourcePerimeterSpacing&quot;:0,&quot;targetPerimeterSpacing&quot;:0};" parent="hQem3i2IH8AsM8--OExP-37" vertex="1">
          <mxGeometry x="440" y="280" width="90" height="30" as="geometry" />
        </mxCell>
        <mxCell id="hQem3i2IH8AsM8--OExP-64" value="" style="edgeStyle=entityRelationEdgeStyle;startArrow=none;endArrow=none;segment=10;curved=1;sourcePerimeterSpacing=0;targetPerimeterSpacing=0;rounded=0;" parent="hQem3i2IH8AsM8--OExP-37" source="hQem3i2IH8AsM8--OExP-43" target="hQem3i2IH8AsM8--OExP-65" edge="1">
          <mxGeometry relative="1" as="geometry">
            <mxPoint x="1690" y="600" as="sourcePoint" />
          </mxGeometry>
        </mxCell>
        <mxCell id="hQem3i2IH8AsM8--OExP-65" value="资金转移" style="whiteSpace=wrap;html=1;rounded=1;arcSize=50;align=center;verticalAlign=middle;strokeWidth=1;autosize=1;spacing=4;treeFolding=1;treeMoving=1;newEdgeStyle={&quot;edgeStyle&quot;:&quot;entityRelationEdgeStyle&quot;,&quot;startArrow&quot;:&quot;none&quot;,&quot;endArrow&quot;:&quot;none&quot;,&quot;segment&quot;:10,&quot;curved&quot;:1,&quot;sourcePerimeterSpacing&quot;:0,&quot;targetPerimeterSpacing&quot;:0};" parent="hQem3i2IH8AsM8--OExP-37" vertex="1">
          <mxGeometry x="440" y="320" width="90" height="30" as="geometry" />
        </mxCell>
        <mxCell id="hQem3i2IH8AsM8--OExP-68" value="" style="edgeStyle=entityRelationEdgeStyle;startArrow=none;endArrow=none;segment=10;curved=1;sourcePerimeterSpacing=0;targetPerimeterSpacing=0;rounded=0;" parent="hQem3i2IH8AsM8--OExP-37" source="hQem3i2IH8AsM8--OExP-43" target="hQem3i2IH8AsM8--OExP-69" edge="1">
          <mxGeometry relative="1" as="geometry">
            <mxPoint x="1690" y="600" as="sourcePoint" />
          </mxGeometry>
        </mxCell>
        <mxCell id="hQem3i2IH8AsM8--OExP-69" value="获取区块和交易数量" style="whiteSpace=wrap;html=1;rounded=1;arcSize=50;align=center;verticalAlign=middle;strokeWidth=1;autosize=1;spacing=4;treeFolding=1;treeMoving=1;newEdgeStyle={&quot;edgeStyle&quot;:&quot;entityRelationEdgeStyle&quot;,&quot;startArrow&quot;:&quot;none&quot;,&quot;endArrow&quot;:&quot;none&quot;,&quot;segment&quot;:10,&quot;curved&quot;:1,&quot;sourcePerimeterSpacing&quot;:0,&quot;targetPerimeterSpacing&quot;:0};" parent="hQem3i2IH8AsM8--OExP-37" vertex="1">
          <mxGeometry x="440" y="360" width="150" height="30" as="geometry" />
        </mxCell>
        <mxCell id="hQem3i2IH8AsM8--OExP-98" value="" style="edgeStyle=entityRelationEdgeStyle;startArrow=none;endArrow=none;segment=10;curved=1;sourcePerimeterSpacing=0;targetPerimeterSpacing=0;rounded=0;" parent="hQem3i2IH8AsM8--OExP-37" source="hQem3i2IH8AsM8--OExP-43" target="hQem3i2IH8AsM8--OExP-99" edge="1">
          <mxGeometry relative="1" as="geometry">
            <mxPoint x="1690" y="600" as="sourcePoint" />
          </mxGeometry>
        </mxCell>
        <mxCell id="hQem3i2IH8AsM8--OExP-99" value="统计用户交易量" style="whiteSpace=wrap;html=1;rounded=1;arcSize=50;align=center;verticalAlign=middle;strokeWidth=1;autosize=1;spacing=4;treeFolding=1;treeMoving=1;newEdgeStyle={&quot;edgeStyle&quot;:&quot;entityRelationEdgeStyle&quot;,&quot;startArrow&quot;:&quot;none&quot;,&quot;endArrow&quot;:&quot;none&quot;,&quot;segment&quot;:10,&quot;curved&quot;:1,&quot;sourcePerimeterSpacing&quot;:0,&quot;targetPerimeterSpacing&quot;:0};" parent="hQem3i2IH8AsM8--OExP-37" vertex="1">
          <mxGeometry x="440" y="400" width="130" height="30" as="geometry" />
        </mxCell>
        <mxCell id="hQem3i2IH8AsM8--OExP-100" value="" style="edgeStyle=entityRelationEdgeStyle;startArrow=none;endArrow=none;segment=10;curved=1;sourcePerimeterSpacing=0;targetPerimeterSpacing=0;rounded=0;" parent="hQem3i2IH8AsM8--OExP-37" source="hQem3i2IH8AsM8--OExP-43" target="hQem3i2IH8AsM8--OExP-101" edge="1">
          <mxGeometry relative="1" as="geometry">
            <mxPoint x="1690" y="600" as="sourcePoint" />
          </mxGeometry>
        </mxCell>
        <mxCell id="hQem3i2IH8AsM8--OExP-101" value="计算每秒交易量" style="whiteSpace=wrap;html=1;rounded=1;arcSize=50;align=center;verticalAlign=middle;strokeWidth=1;autosize=1;spacing=4;treeFolding=1;treeMoving=1;newEdgeStyle={&quot;edgeStyle&quot;:&quot;entityRelationEdgeStyle&quot;,&quot;startArrow&quot;:&quot;none&quot;,&quot;endArrow&quot;:&quot;none&quot;,&quot;segment&quot;:10,&quot;curved&quot;:1,&quot;sourcePerimeterSpacing&quot;:0,&quot;targetPerimeterSpacing&quot;:0};" parent="hQem3i2IH8AsM8--OExP-37" vertex="1">
          <mxGeometry x="440" y="440" width="130" height="30" as="geometry" />
        </mxCell>
        <mxCell id="hQem3i2IH8AsM8--OExP-103" value="" style="edgeStyle=entityRelationEdgeStyle;startArrow=none;endArrow=none;segment=10;curved=1;sourcePerimeterSpacing=0;targetPerimeterSpacing=0;rounded=0;" parent="hQem3i2IH8AsM8--OExP-37" source="hQem3i2IH8AsM8--OExP-43" target="hQem3i2IH8AsM8--OExP-104" edge="1">
          <mxGeometry relative="1" as="geometry">
            <mxPoint x="1690" y="600" as="sourcePoint" />
          </mxGeometry>
        </mxCell>
        <mxCell id="hQem3i2IH8AsM8--OExP-104" value="计算平均每秒交易量" style="whiteSpace=wrap;html=1;rounded=1;arcSize=50;align=center;verticalAlign=middle;strokeWidth=1;autosize=1;spacing=4;treeFolding=1;treeMoving=1;newEdgeStyle={&quot;edgeStyle&quot;:&quot;entityRelationEdgeStyle&quot;,&quot;startArrow&quot;:&quot;none&quot;,&quot;endArrow&quot;:&quot;none&quot;,&quot;segment&quot;:10,&quot;curved&quot;:1,&quot;sourcePerimeterSpacing&quot;:0,&quot;targetPerimeterSpacing&quot;:0};" parent="hQem3i2IH8AsM8--OExP-37" vertex="1">
          <mxGeometry x="440" y="480" width="150" height="30" as="geometry" />
        </mxCell>
        <mxCell id="hQem3i2IH8AsM8--OExP-105" value="" style="edgeStyle=entityRelationEdgeStyle;startArrow=none;endArrow=none;segment=10;curved=1;sourcePerimeterSpacing=0;targetPerimeterSpacing=0;rounded=0;" parent="hQem3i2IH8AsM8--OExP-37" source="hQem3i2IH8AsM8--OExP-43" target="hQem3i2IH8AsM8--OExP-106" edge="1">
          <mxGeometry relative="1" as="geometry">
            <mxPoint x="1590" y="820" as="sourcePoint" />
          </mxGeometry>
        </mxCell>
        <mxCell id="hQem3i2IH8AsM8--OExP-106" value="获取市场价格" style="whiteSpace=wrap;html=1;rounded=1;arcSize=50;align=center;verticalAlign=middle;strokeWidth=1;autosize=1;spacing=4;treeFolding=1;treeMoving=1;newEdgeStyle={&quot;edgeStyle&quot;:&quot;entityRelationEdgeStyle&quot;,&quot;startArrow&quot;:&quot;none&quot;,&quot;endArrow&quot;:&quot;none&quot;,&quot;segment&quot;:10,&quot;curved&quot;:1,&quot;sourcePerimeterSpacing&quot;:0,&quot;targetPerimeterSpacing&quot;:0};" parent="hQem3i2IH8AsM8--OExP-37" vertex="1">
          <mxGeometry x="440" y="520" width="120" height="30" as="geometry" />
        </mxCell>
        <mxCell id="hQem3i2IH8AsM8--OExP-107" value="" style="edgeStyle=entityRelationEdgeStyle;startArrow=none;endArrow=none;segment=10;curved=1;sourcePerimeterSpacing=0;targetPerimeterSpacing=0;rounded=0;" parent="hQem3i2IH8AsM8--OExP-37" source="hQem3i2IH8AsM8--OExP-43" target="hQem3i2IH8AsM8--OExP-108" edge="1">
          <mxGeometry relative="1" as="geometry">
            <mxPoint x="1610" y="820" as="sourcePoint" />
          </mxGeometry>
        </mxCell>
        <mxCell id="hQem3i2IH8AsM8--OExP-108" value="代币兑换" style="whiteSpace=wrap;html=1;rounded=1;arcSize=50;align=center;verticalAlign=middle;strokeWidth=1;autosize=1;spacing=4;treeFolding=1;treeMoving=1;newEdgeStyle={&quot;edgeStyle&quot;:&quot;entityRelationEdgeStyle&quot;,&quot;startArrow&quot;:&quot;none&quot;,&quot;endArrow&quot;:&quot;none&quot;,&quot;segment&quot;:10,&quot;curved&quot;:1,&quot;sourcePerimeterSpacing&quot;:0,&quot;targetPerimeterSpacing&quot;:0};" parent="hQem3i2IH8AsM8--OExP-37" vertex="1">
          <mxGeometry x="440" y="560" width="90" height="30" as="geometry" />
        </mxCell>
      </root>
    </mxGraphModel>
  </diagram>
  <diagram id="aoz4291vzZto8VA0rVKA" name="Page-2">
    <mxGraphModel dx="1194" dy="674" grid="1" gridSize="10" guides="1" tooltips="1" connect="1" arrows="1" fold="1" page="1" pageScale="1" pageWidth="850" pageHeight="1100" math="0" shadow="0">
      <root>
        <mxCell id="0" />
        <mxCell id="1" parent="0" />
      </root>
    </mxGraphModel>
  </diagram>
</mxfile>
